# xmcd
#
# Track frame offsets:
#   150
#   18902
#   38414
#   53025
#   69009
#   78975
#   90969
#   102922
#   116238
#   129165
#   142923
#   162510
#   184776
#   198519
#   212559
#   231561
#   250054
#   269251
#   284999
#   303305
#
# Disc length: 4393 seconds
#
# Revision: 0
# Processed by: cddbd v1.5.2PL0 Copyright (c) Steve Scherf et al.
# Submitted via: GXTranscoder 2.0.1939
#
DISCID=10112714
DTITLE=Seweryn Krajewski - Czekasz na te jedna chwile
DYEAR=1900
DGENRE=Country
TTITLE0=Prolog-Niewielkie szczescie
TTITLE1=czekasz na te jedna chwile
TTITLE2=Najpiekniejsza
TTITLE3=Uciekaj moje serce
TTITLE4=Tam gdzie kochaja nas
TTITLE5=Nie mowmy o zmartwieniach
TTITLE6=Co kazdy chlopiec wiedziec powinien
TTITLE7=Baw mnie
TTITLE8=Zaufac snom
TTITLE9=Spotkanie starych zolwi
TTITLE10=Wakacyjne fotografie
TTITLE11=Ziemio blekitno-szara
TTITLE12=No,jakze bedzie tam?
TTITLE13=Przemija uroda wnas
TTITLE14=Nie jestes sama
TTITLE15=Serce wroc
TTITLE16=Wszystkim ktorzy o nas panietaja
TTITLE17=Polskie zycie
TTITLE18=Golebi song
TTITLE19=Wolni
EXTD=
EXTT0=
EXTT1=
EXTT2=
EXTT3=
EXTT4=
EXTT5=
EXTT6=
EXTT7=
EXTT8=
EXTT9=
EXTT10=
EXTT11=
EXTT12=
EXTT13=
EXTT14=
EXTT15=
EXTT16=
EXTT17=
EXTT18=
EXTT19=
PLAYORDER=
